<svg width="88" height="32" viewBox="0 0 88 32" xmlns="http://www.w3.org/2000/svg" fill-rule="evenodd" clip-rule="evenodd"><path d="M8.425 6.921v4.637h3.318v11.698c0 .235-.026.463-.074.684a3.315 3.315 0 01-3.264 2.677c-1.741 0-3.167-1.325-3.31-3.012a3.254 3.254 0 01-.02-.349v-.105H0v.17c0 4.576 3.782 8.32 8.404 8.32 4.623 0 8.405-3.744 8.405-8.32v-16.4H8.425zM31.518 11.558v11.698c0 .235-.026.463-.073.684a3.315 3.315 0 01-3.265 2.677c-1.741 0-3.167-1.325-3.31-3.012a3.247 3.247 0 01-.02-.349V6.921h-5.075v16.4c0 4.576 3.782 8.32 8.405 8.32 4.622 0 8.404-3.744 8.404-8.32v-16.4h-5.066v4.637z"/><circle id="a" r="2.5" cx="22.25" cy="2.475"/><use href="#a" x="11.865"/><path d="M50.873 24.499v-.003c-3.496-.026-6.323-2.84-6.323-6.31 0-3.486 2.853-6.312 6.372-6.312 3.503 0 6.344 2.8 6.37 6.263h5c-.026-6.199-5.106-11.216-11.37-11.216-6.28 0-11.371 5.044-11.371 11.265 0 6.204 5.064 11.236 11.322 11.263v.002a6.38 6.38 0 014.774 2.19h5.763c-1.655-4.168-5.747-7.122-10.537-7.142z"/><path d="M68.767 9.05V9.05a6.375 6.375 0 01-4.715-2.128h-5.794a11.374 11.374 0 0010.51 7.094v.002c3.496.026 6.322 2.849 6.322 6.328 0 3.496-2.852 6.33-6.371 6.33-3.503 0-6.345-2.808-6.371-6.281h-5c.027 6.216 5.107 11.247 11.37 11.247 6.28 0 11.372-5.058 11.372-11.296 0-6.222-5.065-11.268-11.323-11.294zM83.056 31.64H88V6.921h-4.944v24.72z"/><use href="#a" x="63.28"/></svg>
