<svg width="184" height="40" viewBox="0 0 184 40" fill="black" xmlns="http://www.w3.org/2000/svg"><g class="color" fill="#03FFA5"><path d="M10.676 8.083v5.946h4.204V29.03c0 .3-.032.593-.093.877a4.214 4.214 0 01-4.137 3.433 4.214 4.214 0 01-4.195-3.863 4.224 4.224 0 01-.024-.447v-.135H0v.218c0 5.868 4.793 10.669 10.65 10.669 5.858 0 10.65-4.801 10.65-10.669V8.083H10.677zM39.478 14.03v15c0 .3-.033.593-.093.877a4.214 4.214 0 01-4.137 3.433 4.214 4.214 0 01-4.195-3.863 4.217 4.217 0 01-.024-.447V8.083h-6.431v21.03c0 5.868 4.793 10.669 10.65 10.669 5.858 0 10.65-4.801 10.65-10.669V8.083h-6.42v5.946zM63.51 30.64v-.003c-4.424-.033-8-3.635-8-8.075 0-4.461 3.61-8.077 8.063-8.077 4.432 0 8.028 3.583 8.062 8.015h6.327c-.034-7.932-6.462-14.353-14.39-14.353-7.947 0-14.39 6.454-14.39 14.415 0 7.94 6.41 14.38 14.329 14.413v.003a8.038 8.038 0 016.042 2.802h7.293c-2.095-5.334-7.273-9.114-13.335-9.14z"/><path d="M86.211 10.8v-.002a8.039 8.039 0 01-5.967-2.715h-7.332c2.117 5.287 7.27 9.027 13.3 9.052v.003c4.424.034 8 3.636 8 8.076 0 4.46-3.61 8.077-8.063 8.077-4.432 0-8.028-3.583-8.062-8.015H71.76c.034 7.932 6.463 14.352 14.39 14.352 7.947 0 14.39-6.453 14.39-14.414 0-7.94-6.41-14.38-14.329-14.413M103.816 39.782h6.428V8.082h-6.428v31.699z"/><use class="dot" href="#d"/><use class="dot" href="#d" x="14.857"/><use class="dot" href="#d" x="79.206"/><path d="M183.958 21.419l-.396-1.22-1.351.443v-1.426h-1.274v1.426l-1.35-.442-.396 1.219 1.35.442-.847 1.157 1.033.751.835-1.156.835 1.157 1.032-.765-.822-1.144 1.351-.442z"/></g><path d="M119.308 17.134h1.975V9.95h2.441V8.083h-6.857V9.95h2.441v7.185zm7.245-3.674h3.571v3.674h1.975v-9.05h-1.975v3.548h-3.571V8.083h-1.975v9.051h1.975V13.46zm13.821 1.846h-4.57V13.46h4.382v-1.828h-4.382V9.911h4.57V8.083h-6.545v9.051h6.545v-1.828z"/><path class="mid" d="M122.345 22.75c-.182.151-.446.228-.785.228h-1.892v-1.784h1.892c.354 0 .621.084.794.25a.843.843 0 01.259.642c0 .297-.088.515-.268.664zm.133 2.285c.175.171.26.396.26.688 0 .633-.345.942-1.053.942h-2.017V24.78h2.017c.354 0 .621.085.793.254zm-4.735-5.631v9.05h3.992c.957 0 1.702-.231 2.215-.689.514-.46.775-1.1.775-1.905 0-.48-.129-.905-.383-1.259a2.177 2.177 0 00-.878-.715c.327-.177.593-.42.792-.725.229-.35.344-.766.344-1.238 0-.737-.258-1.348-.768-1.816-.509-.467-1.269-.703-2.26-.703h-3.829zm8.3 0v5.315c0 1.262.37 2.242 1.1 2.914.729.67 1.651 1.01 2.742 1.01 1.09 0 2.012-.34 2.741-1.01.73-.672 1.1-1.652 1.1-2.914v-5.315h-1.975v5.366c0 .63-.156 1.133-.464 1.494-.305.357-.777.538-1.402.538-.626 0-1.098-.18-1.403-.538-.308-.36-.464-.863-.464-1.494v-5.366h-1.975zm12.392 9.226c1.064 0 1.936-.26 2.593-.774.662-.518.998-1.198.998-2.02 0-.496-.09-.929-.268-1.288a2.056 2.056 0 00-.708-.828 3.468 3.468 0 00-.963-.43l-1.961-.548a1.816 1.816 0 01-.666-.325.634.634 0 01-.241-.518c0-.263.117-.473.357-.643.245-.174.576-.262.984-.262.446 0 .802.117 1.058.35.259.235.392.536.408.92l.003.071h1.937l-.002-.076c-.026-.86-.343-1.59-.943-2.17-.6-.58-1.42-.873-2.436-.873-1.007 0-1.82.272-2.415.809a2.607 2.607 0 00-.901 2.01c0 .479.091.897.271 1.245.181.349.419.62.708.805.284.183.604.325.951.422l1.934.541c.269.075.49.186.656.329.16.137.237.307.237.52a.78.78 0 01-.38.698c-.261.171-.635.258-1.111.258-.522 0-.926-.125-1.203-.37a1.306 1.306 0 01-.451-.928l-.005-.07h-1.948l.003.078c.017.39.092.765.224 1.114.132.35.332.678.596.975.265.3.633.542 1.093.716.457.174.992.262 1.591.262m4.946-.175h1.975v-9.051h-1.975v9.05zm11.352-9.051h-1.925v5.734l-3.784-5.734h-1.938v9.05h1.925v-5.709l3.768 5.71h1.954v-9.051zm8.275 7.223h-4.57V24.78h4.382v-1.828h-4.382v-1.721h4.57v-1.828h-6.545v9.05h6.545v-1.827zm7.035-2.907a3.477 3.477 0 00-.963-.43l-1.961-.548a1.798 1.798 0 01-.665-.325.632.632 0 01-.242-.518c0-.262.117-.473.357-.644.245-.173.576-.261.984-.261.446 0 .803.118 1.059.35.258.235.391.536.408.92l.002.071h1.937l-.002-.076c-.026-.86-.343-1.59-.943-2.17-.6-.58-1.419-.873-2.436-.873-1.007 0-1.82.272-2.415.809a2.61 2.61 0 00-.901 2.01c0 .479.092.897.271 1.245.181.349.419.62.708.805.285.183.605.325.952.422l1.933.541c.269.075.49.186.656.329a.65.65 0 01.238.52.783.783 0 01-.38.698c-.262.17-.636.258-1.112.258-.521 0-.926-.125-1.203-.37a1.314 1.314 0 01-.451-.928l-.004-.07h-1.949l.003.078a3.6 3.6 0 00.224 1.114c.132.35.332.678.596.975.265.3.633.542 1.093.716.457.174.993.262 1.591.262 1.064 0 1.936-.26 2.593-.774.663-.518.999-1.198.999-2.02 0-.496-.091-.93-.269-1.288a2.056 2.056 0 00-.708-.828m7.637 0a3.477 3.477 0 00-.963-.43l-1.961-.548a1.796 1.796 0 01-.666-.325.634.634 0 01-.241-.518c0-.262.117-.473.357-.644.245-.173.576-.261.984-.261.446 0 .802.118 1.058.35.258.235.392.536.408.92l.003.071h1.937l-.003-.076c-.025-.86-.342-1.59-.942-2.17-.6-.58-1.42-.873-2.436-.873-1.008 0-1.82.272-2.416.809a2.612 2.612 0 00-.9 2.01c0 .479.091.897.271 1.245.18.349.419.62.708.805.284.183.604.325.951.422l1.933.541c.27.075.49.186.657.329a.652.652 0 01.237.52.78.78 0 01-.38.698c-.261.17-.635.258-1.111.258-.522 0-.927-.125-1.203-.37a1.306 1.306 0 01-.451-.928l-.005-.07h-1.949l.004.078c.017.39.092.765.224 1.114.131.35.332.678.595.975.266.3.633.542 1.094.716.457.174.992.262 1.59.262 1.064 0 1.937-.26 2.593-.774.663-.518.999-1.198.999-2.02 0-.496-.09-.93-.268-1.288a2.056 2.056 0 00-.708-.828"/><path d="M122.275 36.456h-2.281l1.142-3.222 1.139 3.221zm-2.27-5.731l-3.257 9.05h2.069l.543-1.53h3.547l.541 1.53h1.976l-3.249-9.05h-2.17zm14.706 3.975h-3.961v1.79h1.851c-.16.472-.441.853-.837 1.133-.423.299-.938.45-1.529.45-.776 0-1.399-.26-1.854-.772-.457-.514-.688-1.208-.688-2.064 0-.863.229-1.555.682-2.057.45-.5 1.076-.753 1.86-.753.558 0 1.05.14 1.462.414.408.273.68.651.808 1.124l.015.055h2.112l-.018-.09a4.1 4.1 0 00-1.523-2.456c-.798-.622-1.759-.937-2.856-.937-1.316 0-2.426.44-3.3 1.306-.874.868-1.318 2.01-1.318 3.394 0 1.394.435 2.534 1.293 3.389.857.854 1.976 1.288 3.325 1.288 1.275 0 2.354-.436 3.207-1.295.853-.859 1.286-1.996 1.286-3.382 0-.182-.004-.34-.013-.468l-.004-.07zm1.334 5.076h6.545v-1.828h-4.57V36.1h4.382v-1.827h-4.382v-1.721h4.57v-1.828h-6.545v9.05zm13.683-3.317l-3.783-5.734h-1.938v9.05h1.925v-5.71l3.768 5.71h1.953v-9.05h-1.925v5.733zm7.785-4.032c.582 0 1.082.15 1.484.444.401.293.67.711.799 1.243l.013.056h2.097l-.013-.085c-.17-1.084-.661-1.956-1.461-2.592-.798-.635-1.78-.956-2.919-.956-1.308 0-2.403.437-3.257 1.3-.853.863-1.285 2.007-1.285 3.4 0 1.394.432 2.538 1.285 3.4.853.864 1.949 1.301 3.257 1.301 1.139 0 2.121-.321 2.919-.956.8-.636 1.292-1.508 1.461-2.592l.013-.085h-2.097l-.013.056c-.129.532-.398.95-.799 1.244-.402.294-.901.443-1.484.443-.775 0-1.386-.253-1.816-.752-.432-.502-.651-1.194-.651-2.058 0-.864.219-1.557.652-2.059.429-.499 1.04-.752 1.815-.752m8.326 2.139l-2.034-3.841h-2.287l3.333 5.887v3.164h1.975v-3.164l3.333-5.887h-2.287l-2.033 3.841z"/><defs><circle id="d" r="3.224" cx="27.816" cy="3.224"/></defs></svg>
